<mxfile host="Electron" agent="Mozilla/5.0 (Windows NT 10.0; Win64; x64) AppleWebKit/537.36 (KHTML, like Gecko) draw.io/24.7.17 Chrome/128.0.6613.36 Electron/32.0.1 Safari/537.36" version="24.7.17">
  <diagram name="Страница — 1" id="jDI4NHE9SJ6p7VDDYbmN">
    <mxGraphModel dx="1221" dy="717" grid="1" gridSize="10" guides="1" tooltips="1" connect="1" arrows="1" fold="1" page="1" pageScale="1" pageWidth="1169" pageHeight="1654" math="0" shadow="0">
      <root>
        <mxCell id="0" />
        <mxCell id="1" parent="0" />
        <mxCell id="rk-O5JRESqASaMlgdIyO-3" style="edgeStyle=orthogonalEdgeStyle;rounded=0;orthogonalLoop=1;jettySize=auto;html=1;entryX=0.5;entryY=0;entryDx=0;entryDy=0;" edge="1" parent="1" source="rk-O5JRESqASaMlgdIyO-1" target="rk-O5JRESqASaMlgdIyO-2">
          <mxGeometry relative="1" as="geometry" />
        </mxCell>
        <mxCell id="rk-O5JRESqASaMlgdIyO-1" value="&lt;font color=&quot;#ff3333&quot;&gt;Start&lt;/font&gt;" style="ellipse;whiteSpace=wrap;html=1;" vertex="1" parent="1">
          <mxGeometry x="525" y="20" width="120" height="80" as="geometry" />
        </mxCell>
        <mxCell id="rk-O5JRESqASaMlgdIyO-5" style="edgeStyle=orthogonalEdgeStyle;rounded=0;orthogonalLoop=1;jettySize=auto;html=1;entryX=0.5;entryY=0;entryDx=0;entryDy=0;" edge="1" parent="1" source="rk-O5JRESqASaMlgdIyO-2" target="rk-O5JRESqASaMlgdIyO-4">
          <mxGeometry relative="1" as="geometry" />
        </mxCell>
        <mxCell id="rk-O5JRESqASaMlgdIyO-2" value="double r, h, V" style="rounded=0;whiteSpace=wrap;html=1;" vertex="1" parent="1">
          <mxGeometry x="535" y="120" width="100" height="50" as="geometry" />
        </mxCell>
        <mxCell id="rk-O5JRESqASaMlgdIyO-7" style="edgeStyle=orthogonalEdgeStyle;rounded=0;orthogonalLoop=1;jettySize=auto;html=1;" edge="1" parent="1" source="rk-O5JRESqASaMlgdIyO-4" target="rk-O5JRESqASaMlgdIyO-6">
          <mxGeometry relative="1" as="geometry" />
        </mxCell>
        <mxCell id="rk-O5JRESqASaMlgdIyO-4" value="Обчислення об&#39;єму циліндра" style="shape=parallelogram;perimeter=parallelogramPerimeter;whiteSpace=wrap;html=1;fixedSize=1;" vertex="1" parent="1">
          <mxGeometry x="480" y="190" width="210" height="50" as="geometry" />
        </mxCell>
        <mxCell id="rk-O5JRESqASaMlgdIyO-10" style="edgeStyle=orthogonalEdgeStyle;rounded=0;orthogonalLoop=1;jettySize=auto;html=1;" edge="1" parent="1" source="rk-O5JRESqASaMlgdIyO-6" target="rk-O5JRESqASaMlgdIyO-9">
          <mxGeometry relative="1" as="geometry" />
        </mxCell>
        <mxCell id="rk-O5JRESqASaMlgdIyO-6" value="Введіть початкові дані:" style="shape=parallelogram;perimeter=parallelogramPerimeter;whiteSpace=wrap;html=1;fixedSize=1;" vertex="1" parent="1">
          <mxGeometry x="480" y="260" width="210" height="50" as="geometry" />
        </mxCell>
        <mxCell id="rk-O5JRESqASaMlgdIyO-12" style="edgeStyle=orthogonalEdgeStyle;rounded=0;orthogonalLoop=1;jettySize=auto;html=1;entryX=0.5;entryY=0;entryDx=0;entryDy=0;" edge="1" parent="1" source="rk-O5JRESqASaMlgdIyO-9" target="rk-O5JRESqASaMlgdIyO-11">
          <mxGeometry relative="1" as="geometry" />
        </mxCell>
        <mxCell id="rk-O5JRESqASaMlgdIyO-9" value="input r,h" style="shape=parallelogram;perimeter=parallelogramPerimeter;whiteSpace=wrap;html=1;fixedSize=1;" vertex="1" parent="1">
          <mxGeometry x="527.5" y="330" width="115" height="50" as="geometry" />
        </mxCell>
        <mxCell id="rk-O5JRESqASaMlgdIyO-15" style="edgeStyle=orthogonalEdgeStyle;rounded=0;orthogonalLoop=1;jettySize=auto;html=1;" edge="1" parent="1" source="rk-O5JRESqASaMlgdIyO-11" target="rk-O5JRESqASaMlgdIyO-13">
          <mxGeometry relative="1" as="geometry" />
        </mxCell>
        <mxCell id="rk-O5JRESqASaMlgdIyO-11" value="Радіус підставки(см):r" style="shape=parallelogram;perimeter=parallelogramPerimeter;whiteSpace=wrap;html=1;fixedSize=1;" vertex="1" parent="1">
          <mxGeometry x="480" y="400" width="210" height="50" as="geometry" />
        </mxCell>
        <mxCell id="rk-O5JRESqASaMlgdIyO-17" style="edgeStyle=orthogonalEdgeStyle;rounded=0;orthogonalLoop=1;jettySize=auto;html=1;" edge="1" parent="1" source="rk-O5JRESqASaMlgdIyO-13" target="rk-O5JRESqASaMlgdIyO-16">
          <mxGeometry relative="1" as="geometry" />
        </mxCell>
        <mxCell id="rk-O5JRESqASaMlgdIyO-13" value="Висота циліндра(см):h" style="shape=parallelogram;perimeter=parallelogramPerimeter;whiteSpace=wrap;html=1;fixedSize=1;" vertex="1" parent="1">
          <mxGeometry x="480" y="470" width="210" height="50" as="geometry" />
        </mxCell>
        <mxCell id="rk-O5JRESqASaMlgdIyO-19" style="edgeStyle=orthogonalEdgeStyle;rounded=0;orthogonalLoop=1;jettySize=auto;html=1;" edge="1" parent="1" source="rk-O5JRESqASaMlgdIyO-16" target="rk-O5JRESqASaMlgdIyO-18">
          <mxGeometry relative="1" as="geometry" />
        </mxCell>
        <mxCell id="rk-O5JRESqASaMlgdIyO-16" value="V=PI*r^2" style="rounded=0;whiteSpace=wrap;html=1;" vertex="1" parent="1">
          <mxGeometry x="525" y="540" width="120" height="60" as="geometry" />
        </mxCell>
        <mxCell id="rk-O5JRESqASaMlgdIyO-21" style="edgeStyle=orthogonalEdgeStyle;rounded=0;orthogonalLoop=1;jettySize=auto;html=1;" edge="1" parent="1" source="rk-O5JRESqASaMlgdIyO-18" target="rk-O5JRESqASaMlgdIyO-20">
          <mxGeometry relative="1" as="geometry" />
        </mxCell>
        <mxCell id="rk-O5JRESqASaMlgdIyO-18" value="Об&#39;єм V см.куб." style="shape=parallelogram;perimeter=parallelogramPerimeter;whiteSpace=wrap;html=1;fixedSize=1;" vertex="1" parent="1">
          <mxGeometry x="480" y="620" width="210" height="50" as="geometry" />
        </mxCell>
        <mxCell id="rk-O5JRESqASaMlgdIyO-20" value="&lt;font color=&quot;#ff3333&quot;&gt;End&lt;/font&gt;" style="ellipse;whiteSpace=wrap;html=1;" vertex="1" parent="1">
          <mxGeometry x="525" y="690" width="120" height="80" as="geometry" />
        </mxCell>
      </root>
    </mxGraphModel>
  </diagram>
</mxfile>
